<?xml version="1.0" encoding="UTF-8" standalone="no"?>
<!-- Created with Inkscape (http://www.inkscape.org/) -->

<svg
   width="6.9122186mm"
   height="6.9121032mm"
   viewBox="0 0 6.9122186 6.9121032"
   version="1.1"
   id="svg1"
   inkscape:version="1.3.2 (091e20e, 2023-11-25, custom)"
   sodipodi:docname="site-buttons.svg"
   xmlns:inkscape="http://www.inkscape.org/namespaces/inkscape"
   xmlns:sodipodi="http://sodipodi.sourceforge.net/DTD/sodipodi-0.dtd"
   xmlns="http://www.w3.org/2000/svg"
   xmlns:svg="http://www.w3.org/2000/svg">
  <sodipodi:namedview
     id="namedview1"
     pagecolor="#ffffff"
     bordercolor="#000000"
     borderopacity="0.25"
     inkscape:showpageshadow="2"
     inkscape:pageopacity="0.0"
     inkscape:pagecheckerboard="0"
     inkscape:deskcolor="#d1d1d1"
     inkscape:document-units="mm"
     showgrid="true"
     inkscape:zoom="22.627417"
     inkscape:cx="5.4579805"
     inkscape:cy="23.66598"
     inkscape:window-width="2560"
     inkscape:window-height="1377"
     inkscape:window-x="-8"
     inkscape:window-y="-8"
     inkscape:window-maximized="1"
     inkscape:current-layer="layer1">
    <inkscape:grid
       id="grid1"
       units="mm"
       originx="0.016528712"
       originy="0.016462579"
       spacingx="0.99999998"
       spacingy="1"
       empcolor="#0099e5"
       empopacity="0.30196078"
       color="#0099e5"
       opacity="0.14901961"
       empspacing="5"
       dotted="false"
       gridanglex="30"
       gridanglez="30"
       visible="true" />
  </sodipodi:namedview>
  <defs
     id="defs1">
    <inkscape:path-effect
       effect="fillet_chamfer"
       id="path-effect7"
       is_visible="true"
       lpeversion="1"
       nodesatellites_param="F,0,0,1,0,1.3508957,0,1 @ F,0,0,1,0,1.3266356,0,1 @ F,0,0,1,0,1.3536269,0,1 @ F,0,0,1,0,1.3263372,0,1"
       radius="0.5"
       unit="px"
       method="auto"
       mode="F"
       chamfer_steps="1"
       flexible="false"
       use_knot_distance="true"
       apply_no_radius="true"
       apply_with_radius="true"
       only_selected="false"
       hide_knots="false" />
    <inkscape:path-effect
       effect="fillet_chamfer"
       id="path-effect7-2"
       is_visible="true"
       lpeversion="1"
       nodesatellites_param="F,0,0,1,0,1.3508957,0,1 @ F,0,0,1,0,1.3266356,0,1 @ F,0,0,1,0,1.3536269,0,1 @ F,0,0,1,0,1.3263372,0,1"
       radius="0.5"
       unit="px"
       method="auto"
       mode="F"
       chamfer_steps="1"
       flexible="false"
       use_knot_distance="true"
       apply_no_radius="true"
       apply_with_radius="true"
       only_selected="false"
       hide_knots="false" />
  </defs>
  <g
     inkscape:groupmode="layer"
     id="layer2"
     inkscape:label="instagram-orig"
     transform="translate(2.662362,1.0747959)"
     sodipodi:insensitive="true"
     style="display:none">
    <path
       d="m 0.7937505,-0.43858474 c 0.918369,0 1.0271841,0.00345 1.3899045,0.02001 a 1.90334,1.90334 0 0 1 0.6385114,0.11850854 1.0656453,1.0656453 0 0 1 0.3955519,0.25734383 1.0656453,1.0656453 0 0 1 0.2573438,0.39555189 1.90334,1.90334 0 0 1 0.1185085,0.63851236 c 0.01657,0.36271942 0.02001,0.47153552 0.02001,1.38990352 0,0.918369 -0.00345,1.0271841 -0.02001,1.3899045 A 1.90334,1.90334 0 0 1 3.4750621,4.4096612 1.1391273,1.1391273 0 0 1 2.8221664,5.062557 1.90334,1.90334 0 0 1 2.183655,5.1810655 c -0.3627204,0.016571 -0.4715355,0.02001 -1.3899045,0.02001 -0.91836798,0 -1.02718411,-0.00345 -1.38990454,-0.02001 A 1.90334,1.90334 0 0 1 -1.234978,5.0625591 1.0656453,1.0656453 0 0 1 -1.6302172,4.8052163 1.0656453,1.0656453 0 0 1 -1.8875599,4.4096633 1.90334,1.90334 0 0 1 -2.0060695,3.771152 c -0.01657,-0.3627194 -0.02001,-0.4715355 -0.02001,-1.3899045 0,-0.918368 0.00345,-1.0271841 0.02001,-1.38990353 a 1.90334,1.90334 0 0 1 0.1185096,-0.63851236 1.0656453,1.0656453 0 0 1 0.2573427,-0.39555189 1.0656453,1.0656453 0 0 1 0.3955518,-0.25734279 1.90334,1.90334 0 0 1 0.63851136,-0.11850958 c 0.36272043,-0.0165705 0.47153656,-0.02001 1.38990454,-0.02001 m 0,-0.61975065 c -0.93400275,0 -1.05126093,0.00408 -1.41804504,0.020637 a 2.5246538,2.5246538 0 0 0 -0.83488116,0.15978411 1.686021,1.686021 0 0 0 -0.6094319,0.39711588 1.686021,1.686021 0 0 0 -0.3968022,0.6091194 2.5246538,2.5246538 0 0 0 -0.1594726,0.83488009 c -0.017198,0.36678412 -0.020951,0.48404332 -0.020951,1.41804612 0,0.9340027 0.00397,1.0512619 0.020637,1.4180461 a 2.5246538,2.5246538 0 0 0 0.1597841,0.8348811 1.686021,1.686021 0 0 0 0.3971159,0.6094309 1.686021,1.686021 0 0 0 0.6091182,0.3968033 2.5246538,2.5246538 0 0 0 0.83488117,0.1594716 c 0.36678411,0.017198 0.48404333,0.020951 1.41804504,0.020951 0.93400279,0 1.05126199,-0.00408 1.41804609,-0.020637 A 2.5246538,2.5246538 0 0 0 3.0466756,5.6404121 1.7588775,1.7588775 0 0 0 4.0529099,4.6341778 2.5246538,2.5246538 0 0 0 4.2123825,3.7992967 c 0.017198,-0.3667841 0.020951,-0.4840433 0.020951,-1.4180461 0,-0.9340027 -0.00397,-1.051262 -0.020637,-1.41804608 A 2.5246538,2.5246538 0 0 0 4.052912,0.12832339 1.686021,1.686021 0 0 0 3.6557961,-0.4811086 1.686021,1.686021 0 0 0 3.0466777,-0.87791189 2.5246538,2.5246538 0 0 0 2.2117966,-1.0373834 c -0.3667841,-0.017198 -0.4840433,-0.020951 -1.4180461,-0.02095 z m 0,1.67320075 A 1.7663821,1.7663821 0 1 0 2.5601326,2.3812496 1.7663821,1.7663821 0 0 0 0.7937505,0.61486745 Z m 0,2.91301465 A 1.1466319,1.1466319 0 1 1 1.940382,2.3812496 1.1466319,1.1466319 0 0 1 0.7937505,3.5278821 Z M 2.6298623,0.13238812 A 0.41274994,0.41274994 0 1 0 3.0426119,0.54513773 0.41274994,0.41274994 0 0 0 2.6298623,0.13238812 Z"
       id="path1-1"
       style="fill:#d4aa00;fill-opacity:0.414634;stroke:none;stroke-width:0.312689;stroke-opacity:0.435976" />
  </g>
  <g
     inkscape:label="instagram-new"
     inkscape:groupmode="layer"
     id="layer1"
     style="display:inline"
     transform="translate(0.01652871,0.01646258)">
    <g
       id="g1">
      <path
         style="display:inline;fill:none;fill-rule:evenodd;stroke:#000000;stroke-width:0.692519;stroke-linecap:square;stroke-linejoin:round;stroke-miterlimit:12.6;stroke-dasharray:none"
         d="m 26.455611,1.3508826 0.01159,2.6311359 a 1.3324912,1.3324912 44.873831 0 0 1.332479,1.3266227 h 2.581607 a 1.3536269,1.3536269 135 0 0 1.353627,-1.3536269 l 0,-2.605291 A 1.3322189,1.3322189 45.12676 0 0 30.408588,0.01751738 L 27.800544,0.00597736 A 1.3390212,1.3390212 135.00059 0 0 26.455611,1.3508826 Z"
         id="path6"
         inkscape:path-effect="#path-effect7"
         inkscape:original-d="m 26.449662,0 0.02338,5.3086412 h 5.26187 V 0.02338608 Z"
         transform="matrix(1.1574703,0,0,1.1529403,-30.237313,0.37587767)"
         inkscape:label="outter-border" />
      <ellipse
         style="fill:none;fill-rule:evenodd;stroke:#000000;stroke-width:0.8;stroke-linecap:square;stroke-linejoin:round;stroke-miterlimit:12.6;stroke-dasharray:none;stroke-opacity:1"
         id="ellipse7"
         cx="3.4395816"
         cy="3.439589"
         rx="1.4465365"
         ry="1.4465363"
         inkscape:export-filename="..\..\..\2024-py-benabola-skylounge-menu\dist\static\img\insta.svg"
         inkscape:export-xdpi="96"
         inkscape:export-ydpi="96"
         inkscape:label="inner-circle" />
      <ellipse
         style="fill:#000000;fill-rule:evenodd;stroke:none;stroke-width:0.79375;stroke-linecap:square;stroke-linejoin:round;stroke-miterlimit:12.6;stroke-dasharray:none;stroke-opacity:1"
         id="ellipse13-2"
         cx="5.2916665"
         cy="1.5874336"
         rx="0.52916664"
         ry="0.52910036"
         inkscape:label="little-circle" />
    </g>
  </g>
  <g
     inkscape:groupmode="layer"
     id="layer3"
     inkscape:label="back-to-top"
     style="display:none"
     transform="translate(0.01652871,0.01646258)">
    <path
       style="display:inline;fill:none;fill-rule:evenodd;stroke:#000000;stroke-width:0.695186;stroke-linecap:square;stroke-linejoin:round;stroke-miterlimit:12.6;stroke-dasharray:none"
       d="m 26.455611,1.3508826 0.01159,2.6311359 a 1.3324912,1.3324912 44.873831 0 0 1.332479,1.3266227 h 2.581607 a 1.3536269,1.3536269 135 0 0 1.353627,-1.3536269 l 0,-2.605291 A 1.3322189,1.3322189 45.12676 0 0 30.408588,0.01751738 L 27.800544,0.00597736 A 1.3390212,1.3390212 135.00059 0 0 26.455611,1.3508826 Z"
       id="path6-4"
       inkscape:path-effect="#path-effect7-2"
       inkscape:original-d="m 26.449662,0 0.02338,5.3086412 h 5.26187 V 0.02338608 Z"
       transform="matrix(1.153029,0,0,1.1485176,-30.10809,0.38758316)"
       inkscape:label="outter-border" />
    <path
       style="display:inline;fill:none;fill-rule:evenodd;stroke:#000000;stroke-width:0.8;stroke-linecap:round;stroke-dasharray:none;stroke-opacity:1"
       d="M 1.342326,4.5972635 3.446414,2.4521855 5.53684,4.5904325"
       id="path5-1"
       sodipodi:nodetypes="ccc"
       inkscape:export-filename="..\..\..\2024-py-benabola-skylounge-menu\dist\static\img\b2top.svg"
       inkscape:export-xdpi="96"
       inkscape:export-ydpi="96"
       inkscape:label="up-arrow" />
  </g>
</svg>
